<svg id="Layer_1" data-name="Layer 1" xmlns="http://www.w3.org/2000/svg" viewBox="0 0 512 512"><defs><style>.cls-1{fill:#78909c;}.cls-2{fill:#ffc61b;}.cls-3{fill:#fff;}</style></defs><title>hashtag</title><circle class="cls-1" cx="256" cy="256" r="256"/><path class="cls-2" d="M152.3,144.83l-.22-.22Z"/><path class="cls-3" d="M380.65,192.45H346.74l11.85-51a17.46,17.46,0,0,0-34-7.9l-13.68,58.94H232.42l11.85-51a17.46,17.46,0,0,0-34-7.9l-13.68,58.94H157.41a16.8,16.8,0,0,0,0,33.61h31.37l-13.38,57.61H135.8a16.8,16.8,0,1,0,0,33.61h31.8l-11.85,51a17.45,17.45,0,1,0,34,7.89l13.68-58.94h78.49l-11.85,51a17.45,17.45,0,1,0,34,7.89l13.68-58.94h38.88a16.8,16.8,0,1,0,0-33.61H325.57l13.38-57.61h41.71a16.8,16.8,0,1,0,0-33.61Zm-90.92,91.22H211.24l13.38-57.61h78.49Z"/></svg>