<svg id="Layer_1" data-name="Layer 1" xmlns="http://www.w3.org/2000/svg" xmlns:xlink="http://www.w3.org/1999/xlink" viewBox="0 0 512 512"><defs><style>.cls-1{fill:none;}.cls-2{fill:#ff5722;}.cls-3{fill:#ffc61b;}.cls-4{clip-path:url(#clip-path);}.cls-5{fill:#fff;}</style><clipPath id="clip-path"><rect class="cls-1" x="123.12" y="119.32" width="272.59" height="278.68"/></clipPath></defs><title>pinned</title><circle class="cls-2" cx="256" cy="256" r="256"/><path class="cls-3" d="M152.3,144.83l-.22-.22Z"/><g class="cls-4"><path class="cls-5" d="M367.91,221.3a4.63,4.63,0,0,0-2.8-3.36A107.78,107.78,0,0,0,325,210.29a115.86,115.86,0,0,0-44.8,9l-68.8-58.55a51.69,51.69,0,0,0-9.51-36.2,4.61,4.61,0,0,0-3.34-1.72,4.8,4.8,0,0,0-3.52,1.36l-70.54,70.54a4.61,4.61,0,0,0,.39,6.88c10.09,8,22.4,9.69,31,9.69,1.9,0,3.53-.09,4.76-.18l58.84,69.14c-4,10.32-16.28,47.5-1.42,84.8a4.61,4.61,0,0,0,3.36,2.83,6,6,0,0,0,.92.09,4.63,4.63,0,0,0,3.28-1.35l67.38-67.38L355.69,362a4.62,4.62,0,1,0,6.55-6.53l-62.77-62.77,67.2-67.17a4.68,4.68,0,0,0,1.24-4.2Zm0,0"/></g></svg>