<svg id="Layer_1" data-name="Layer 1" xmlns="http://www.w3.org/2000/svg" xmlns:xlink="http://www.w3.org/1999/xlink" viewBox="0 0 512 512"><defs><style>.cls-1{fill:none;}.cls-2{fill:#2ecc71;}.cls-3{fill:#ffc61b;}.cls-4{clip-path:url(#clip-path);}.cls-5{fill:#fff;}</style><clipPath id="clip-path"><rect class="cls-1" x="119.12" y="114.32" width="277.43" height="283.63"/></clipPath></defs><title>track</title><circle class="cls-2" cx="256" cy="256" r="256"/><path class="cls-3" d="M152.3,144.83l-.22-.22Z"/><g class="cls-4"><path class="cls-5" d="M294.76,221.26a5.17,5.17,0,0,1-3.66-8.83l93-93a5.16,5.16,0,0,1,7.29,7.32l-93,93a5.14,5.14,0,0,1-3.66,1.52Zm0,0"/><path class="cls-5" d="M124.29,391.74a5.16,5.16,0,0,1-3.66-8.8l93-93a5.17,5.17,0,1,1,7.32,7.31l-93,93a5.18,5.18,0,0,1-3.66,1.51Zm0,0"/><path class="cls-5" d="M387.78,391.74a5.15,5.15,0,0,1-3.66-1.51l-93-93a5.17,5.17,0,1,1,7.32-7.31l93,93a5.16,5.16,0,0,1-3.63,8.8Zm0,0"/><path class="cls-5" d="M217.27,221.26a5.15,5.15,0,0,1-3.66-1.52l-93-93a5.17,5.17,0,0,1,7.32-7.32l93,93a5.17,5.17,0,0,1-3.66,8.83Zm0,0"/></g><path class="cls-5" d="M217.27,221.26h-62a5.17,5.17,0,0,1,0-10.35h62a5.17,5.17,0,0,1,0,10.35Zm0,0"/><path class="cls-5" d="M217.27,221.26a5.18,5.18,0,0,1-5.17-5.17v-62a5.17,5.17,0,0,1,10.35,0v62a5.18,5.18,0,0,1-5.17,5.17Zm0,0"/><path class="cls-5" d="M356.77,298.76h-62a5.17,5.17,0,0,1,0-10.35h62a5.17,5.17,0,0,1,0,10.35Zm0,0"/><path class="cls-5" d="M294.76,360.76a5.18,5.18,0,0,1-5.17-5.17v-62a5.17,5.17,0,1,1,10.35,0v62a5.17,5.17,0,0,1-5.17,5.17Zm0,0"/><path class="cls-5" d="M217.27,360.76a5.18,5.18,0,0,1-5.17-5.17v-62a5.17,5.17,0,1,1,10.35,0v62a5.17,5.17,0,0,1-5.17,5.17Zm0,0"/><path class="cls-5" d="M217.27,298.76h-62a5.17,5.17,0,1,1,0-10.35h62a5.17,5.17,0,0,1,0,10.35Zm0,0"/><path class="cls-5" d="M294.76,221.26a5.18,5.18,0,0,1-5.17-5.17v-62a5.17,5.17,0,0,1,10.35,0v62a5.18,5.18,0,0,1-5.17,5.17Zm0,0"/><path class="cls-5" d="M356.77,221.26h-62a5.17,5.17,0,0,1,0-10.35h62a5.17,5.17,0,1,1,0,10.35Zm0,0"/><path class="cls-5" d="M289.59,254.84A33.57,33.57,0,1,1,256,221.26a33.58,33.58,0,0,1,33.57,33.57Zm0,0"/><path class="cls-5" d="M256,293.58a38.75,38.75,0,1,1,38.75-38.75A38.79,38.79,0,0,1,256,293.58Zm0-67.15a28.41,28.41,0,1,0,28.43,28.4A28.43,28.43,0,0,0,256,226.44Zm0,0"/></svg>